<svg width="1024" height="1024" viewBox="0 0 1024 1024" fill="none" xmlns="http://www.w3.org/2000/svg">
<rect width="1024" height="1024" fill="#F2C777"/>
<rect x="123.188" y="384.962" width="38.4962" height="254.075" rx="19.2481" fill="white"/>
<rect x="184.781" y="300.271" width="600.541" height="431.158" rx="30.797" fill="white"/>
<path d="M577.445 512L908.513 346.466V677.534L577.445 512Z" fill="white"/>
<path d="M355.412 554.022C363.727 571.577 336.703 589.131 318.456 593.519C298.13 597.908 272.491 592.826 254.475 577.813C232.994 560.028 231.608 525.381 233.687 500.205C235.304 477.569 248.47 448.697 273.415 434.838C292.355 423.982 323.537 426.754 338.782 440.843C348.483 449.389 363.727 474.797 343.17 479.878C334.624 482.188 329.774 475.952 325.385 470.408C310.371 452.623 283.578 458.398 274.339 478.262C264.638 499.05 261.635 530.463 274.57 548.941C284.733 563.492 304.597 567.881 320.304 559.104C325.385 556.563 331.621 549.172 338.782 547.093C344.325 545.245 352.178 547.324 355.412 554.022ZM413.194 574.348C412.963 575.965 412.732 577.351 412.732 578.737L411.347 583.587C411.116 584.049 410.885 584.511 410.654 584.742L409.961 586.128C409.037 587.976 407.42 589.362 405.803 590.286C402.107 592.134 398.181 592.595 394.023 591.672C391.482 591.441 389.173 590.517 387.787 589.362C386.401 588.438 385.246 587.283 384.553 585.435C383.86 583.818 383.398 582.201 383.167 580.816C382.705 579.199 382.474 577.813 382.474 576.658V447.311C382.474 445.232 382.705 443.615 382.936 441.998C383.167 439.919 383.629 438.534 384.322 436.686C384.784 435.3 385.708 433.914 386.863 432.99C388.48 431.835 390.328 430.911 392.175 430.68C394.254 429.987 396.102 429.987 398.412 429.987C400.722 429.987 403.262 430.68 405.803 431.835C407.882 432.99 409.499 434.838 410.423 436.917C411.808 439.688 412.732 442.691 412.732 445.463C412.963 448.466 413.194 456.319 413.194 459.322V460.245C413.656 470.177 413.656 478.724 413.425 489.349C413.425 499.743 413.194 509.444 413.194 518.914V567.419C413.194 568.574 413.425 569.729 413.425 570.884C413.425 572.269 413.425 573.193 413.194 574.348ZM468.131 505.286C468.131 522.378 468.824 550.327 468.131 569.267C467.669 578.506 466.745 592.595 453.579 591.903C444.109 591.441 440.183 583.356 439.721 569.498C439.49 555.177 439.028 531.386 439.259 516.835C439.49 508.289 437.642 490.503 443.416 482.65C447.574 477.569 461.433 477.338 465.359 483.112C467.669 486.808 468.131 497.664 468.131 505.286ZM459.354 458.629C449.884 461.169 442.954 455.857 441.568 447.08C439.028 433.914 451.962 426.523 462.818 434.376C473.443 441.998 471.596 454.702 459.354 458.629ZM620.545 539.009C621.007 548.941 621.007 557.256 620.545 566.957C620.314 574.579 621.469 586.128 615.002 590.286C607.38 595.136 595.369 593.75 594.676 581.74C594.214 574.579 593.983 567.188 593.983 560.49C593.983 553.56 593.752 548.248 593.983 536.699C593.983 530.925 593.521 521.685 589.825 518.683C584.513 513.832 575.043 516.604 573.426 526.536C573.426 530.463 573.195 534.851 573.426 538.547C573.657 548.479 573.657 556.794 573.426 566.495C572.964 574.348 575.043 586.128 568.344 590.286C560.722 595.136 550.79 592.134 549.866 580.123C549.173 572.962 549.173 567.419 549.173 560.721C549.173 553.56 549.866 545.938 549.173 538.778C548.942 534.389 549.173 526.305 547.325 522.378C545.016 517.99 536.931 516.835 532.774 518.914C524.228 523.071 524.921 533.234 524.921 541.318C524.921 561.183 525.845 576.196 522.611 584.973C519.377 594.443 501.13 594.905 498.127 584.511C496.048 577.813 495.586 557.025 495.817 544.321V511.06C495.586 503.9 494.894 494.892 497.434 488.194C499.513 482.419 504.826 481.264 509.676 481.495C520.994 481.726 521.225 493.968 521.687 503.207C525.152 495.585 529.309 490.272 538.086 488.656C549.173 486.577 558.643 489.58 565.342 497.433C568.575 494.199 572.733 491.658 577.122 489.811C591.904 484.267 608.996 490.965 615.695 505.517C620.314 515.218 620.083 528.384 620.545 539.009ZM646.882 446.849C647.575 435.762 654.042 427.447 665.591 430.68C676.678 433.683 675.061 444.077 675.292 453.316V485.191C675.061 489.811 675.292 494.892 675.292 494.892C675.292 494.892 685.917 494.892 690.306 494.661C724.26 494.43 738.118 515.449 737.656 544.321C737.194 578.506 715.713 593.519 682.684 593.519C644.572 593.519 646.882 597.215 646.882 547.093C646.882 523.302 647.113 499.743 646.882 476.183C646.882 469.715 646.189 463.941 646.882 446.849ZM690.075 567.65C698.852 567.188 704.165 565.109 707.629 560.721C714.558 551.251 715.02 533.927 705.319 525.843C696.542 518.452 689.151 519.838 675.754 520.3V548.017L675.292 567.188C675.292 567.188 683.377 568.112 690.075 567.65Z" fill="#F2C777"/>
</svg>
